<mxfile host="app.diagrams.net" agent="Mozilla/5.0 (Macintosh; Intel Mac OS X 10_15_7) AppleWebKit/537.36 (KHTML, like Gecko) Chrome/138.0.0.0 Safari/537.36" version="28.0.6">
  <diagram name="MPI Parallel Search Engine" id="MPI-Search-Engine">
    <mxGraphModel dx="1280" dy="856" grid="0" gridSize="10" guides="1" tooltips="1" connect="1" arrows="1" fold="1" page="0" pageScale="1" pageWidth="850" pageHeight="1100" background="none" math="0" shadow="0">
      <root>
        <mxCell id="0" />
        <mxCell id="1" parent="0" />
        <mxCell id="user" value="User Input (Query/Command)" style="rounded=1;whiteSpace=wrap;html=1;fillColor=#e1f5fe;strokeColor=#0288d1;" parent="1" vertex="1">
          <mxGeometry x="85" y="160" width="180" height="50" as="geometry" />
        </mxCell>
        <mxCell id="main" value="Main Controller (main.c)" style="rounded=1;whiteSpace=wrap;html=1;fillColor=#fffde7;strokeColor=#fbc02d;" parent="1" vertex="1">
          <mxGeometry x="325" y="160" width="200" height="50" as="geometry" />
        </mxCell>
        <mxCell id="user2main" style="edgeStyle=orthogonalEdgeStyle;endArrow=block;html=1;strokeColor=#0288d1;" parent="1" source="user" target="main" edge="1">
          <mxGeometry relative="1" as="geometry" />
        </mxCell>
        <mxCell id="mpi" value="MPI Initialization" style="rounded=1;whiteSpace=wrap;html=1;fillColor=#e8f5e9;strokeColor=#388e3c;" parent="1" vertex="1">
          <mxGeometry x="325" y="250" width="200" height="40" as="geometry" />
        </mxCell>
        <mxCell id="main2mpi" style="edgeStyle=orthogonalEdgeStyle;endArrow=block;html=1;strokeColor=#fbc02d;" parent="1" source="main" target="mpi" edge="1">
          <mxGeometry relative="1" as="geometry" />
        </mxCell>
        <mxCell id="lb" value="Load Balancer (load_balancer.c)" style="rounded=1;whiteSpace=wrap;html=1;fillColor=#f3e5f5;strokeColor=#7b1fa2;" parent="1" vertex="1">
          <mxGeometry x="325" y="330" width="200" height="50" as="geometry" />
        </mxCell>
        <mxCell id="mpi2lb" style="edgeStyle=orthogonalEdgeStyle;endArrow=block;html=1;strokeColor=#388e3c;" parent="1" source="mpi" target="lb" edge="1">
          <mxGeometry relative="1" as="geometry" />
        </mxCell>
        <mxCell id="pp" value="Parallel Processor (parallel_processor.c)" style="rounded=1;whiteSpace=wrap;html=1;fillColor=#e0f7fa;strokeColor=#00838f;" parent="1" vertex="1">
          <mxGeometry x="325" y="410" width="200" height="50" as="geometry" />
        </mxCell>
        <mxCell id="lb2pp" style="edgeStyle=orthogonalEdgeStyle;endArrow=block;html=1;strokeColor=#7b1fa2;" parent="1" source="lb" target="pp" edge="1">
          <mxGeometry relative="1" as="geometry" />
        </mxCell>
        <mxCell id="parser" value="Parser (parser.c)" style="rounded=1;whiteSpace=wrap;html=1;fillColor=#fff3e0;strokeColor=#ef6c00;" parent="1" vertex="1">
          <mxGeometry x="55" y="410" width="180" height="50" as="geometry" />
        </mxCell>
        <mxCell id="pp2parser" style="edgeStyle=orthogonalEdgeStyle;endArrow=block;html=1;strokeColor=#00838f;" parent="1" source="pp" target="parser" edge="1">
          <mxGeometry relative="1" as="geometry" />
        </mxCell>
        <mxCell id="index" value="Index (index.c)" style="rounded=1;whiteSpace=wrap;html=1;fillColor=#e8eaf6;strokeColor=#3949ab;" parent="1" vertex="1">
          <mxGeometry x="325" y="520" width="200" height="50" as="geometry" />
        </mxCell>
        <mxCell id="pp2index" style="edgeStyle=orthogonalEdgeStyle;endArrow=block;html=1;strokeColor=#00838f;" parent="1" source="pp" target="index" edge="1">
          <mxGeometry relative="1" as="geometry" />
        </mxCell>
        <mxCell id="parser2index" style="edgeStyle=orthogonalEdgeStyle;endArrow=block;html=1;strokeColor=#ef6c00;entryX=0;entryY=0.5;entryDx=0;entryDy=0;" parent="1" source="parser" target="index" edge="1">
          <mxGeometry relative="1" as="geometry">
            <Array as="points">
              <mxPoint x="145" y="545" />
            </Array>
          </mxGeometry>
        </mxCell>
        <mxCell id="distindex" value="Distributed Index (dist_index.c)" style="rounded=1;whiteSpace=wrap;html=1;fillColor=#fce4ec;strokeColor=#ad1457;" parent="1" vertex="1">
          <mxGeometry x="595" y="520" width="200" height="50" as="geometry" />
        </mxCell>
        <mxCell id="index2distindex" style="edgeStyle=orthogonalEdgeStyle;endArrow=block;html=1;strokeColor=#3949ab;" parent="1" source="index" target="distindex" edge="1">
          <mxGeometry relative="1" as="geometry" />
        </mxCell>
        <mxCell id="mpi_comm" value="MPI Communication (mpi_comm.c)" style="rounded=1;whiteSpace=wrap;html=1;fillColor=#f1f8e9;strokeColor=#558b2f;" parent="1" vertex="1">
          <mxGeometry x="595" y="330" width="200" height="50" as="geometry" />
        </mxCell>
        <mxCell id="lb2mpi_comm" style="edgeStyle=orthogonalEdgeStyle;endArrow=block;html=1;strokeColor=#7b1fa2;" parent="1" source="lb" target="mpi_comm" edge="1">
          <mxGeometry relative="1" as="geometry" />
        </mxCell>
        <mxCell id="pp2mpi_comm" style="edgeStyle=orthogonalEdgeStyle;endArrow=block;html=1;strokeColor=#00838f;" parent="1" source="pp" target="mpi_comm" edge="1">
          <mxGeometry relative="1" as="geometry" />
        </mxCell>
        <mxCell id="distindex2mpi_comm" style="edgeStyle=orthogonalEdgeStyle;endArrow=block;html=1;strokeColor=#ad1457;" parent="1" source="distindex" target="mpi_comm" edge="1">
          <mxGeometry relative="1" as="geometry" />
        </mxCell>
        <mxCell id="ranking" value="Ranking (ranking.c)" style="rounded=1;whiteSpace=wrap;html=1;fillColor=#e0f2f1;strokeColor=#00695c;" parent="1" vertex="1">
          <mxGeometry x="595" y="640" width="200" height="50" as="geometry" />
        </mxCell>
        <mxCell id="distindex2ranking" style="edgeStyle=orthogonalEdgeStyle;endArrow=block;html=1;strokeColor=#ad1457;" parent="1" source="distindex" target="ranking" edge="1">
          <mxGeometry relative="1" as="geometry" />
        </mxCell>
        <mxCell id="metrics" value="Metrics (metrics.c)" style="rounded=1;whiteSpace=wrap;html=1;fillColor=#f9fbe7;strokeColor=#afb42b;" parent="1" vertex="1">
          <mxGeometry x="595" y="750" width="200" height="50" as="geometry" />
        </mxCell>
        <mxCell id="ranking2metrics" style="edgeStyle=orthogonalEdgeStyle;endArrow=block;html=1;strokeColor=#00695c;" parent="1" source="ranking" target="metrics" edge="1">
          <mxGeometry relative="1" as="geometry" />
        </mxCell>
        <mxCell id="output" value="Results Output" style="rounded=1;whiteSpace=wrap;html=1;fillColor=#fffde7;strokeColor=#fbc02d;" parent="1" vertex="1">
          <mxGeometry x="305" y="750" width="200" height="50" as="geometry" />
        </mxCell>
        <mxCell id="ranking2output" style="edgeStyle=orthogonalEdgeStyle;endArrow=block;html=1;strokeColor=#00695c;" parent="1" source="ranking" target="output" edge="1">
          <mxGeometry relative="1" as="geometry" />
        </mxCell>
        <mxCell id="metrics2output" style="edgeStyle=orthogonalEdgeStyle;endArrow=block;html=1;strokeColor=#afb42b;" parent="1" source="metrics" target="output" edge="1">
          <mxGeometry relative="1" as="geometry" />
        </mxCell>
        <mxCell id="parallel_note" value="Parallelism: Load Balancer, Parallel Processor, Indexing, and&amp;nbsp;&lt;div&gt;Distributed Index operate in parallel across MPI processes/nodes.&lt;/div&gt;" style="text;html=1;strokeColor=none;fillColor=none;fontSize=14;fontStyle=1;" parent="1" vertex="1">
          <mxGeometry x="80" y="50" width="680" height="40" as="geometry" />
        </mxCell>
      </root>
    </mxGraphModel>
  </diagram>
</mxfile>
